<svg xmlns="http://www.w3.org/2000/svg" viewBox="0 0 240 240" role="img" aria-labelledby="title desc">
  <title id="title">Logo VAI Internet</title>
  <desc id="desc">Circulo rojo con marca VAI internet en blanco y vino.</desc>
  <defs>
    <linearGradient id="bg" x1="0" y1="0" x2="1" y2="1">
      <stop offset="0%" stop-color="#f00027" />
      <stop offset="100%" stop-color="#dd0026" />
    </linearGradient>
  </defs>
  <circle cx="120" cy="120" r="114" fill="url(#bg)" />
  <path d="M18 136c31 12 66 25 102 27 41 2 72-11 102-28v47H18Z" fill="#a20d2d" opacity=".95" />
  <g fill="#fff">
    <path d="M61 74h25l18 65 22-65h20l22 65 17-65h18l-28 94h-18l-22-63-23 63h-18z" />
    <path d="M167 91c0-11 8-18 18-18 10 0 18 7 18 18 0 9-8 17-18 17-10 0-18-8-18-17Zm-7 24 24-7-17 61h-24z" />
  </g>
  <path d="M73 186c14-3 28-4 42-4 21 0 41 4 61 11-12 9-29 15-48 15-21 0-40-8-55-22Z" fill="none" />
  <text x="118" y="192" text-anchor="middle" font-size="33" font-style="italic" font-weight="700" font-family="Brush Script MT, Segoe Script, cursive" fill="#fff">
    internet
  </text>
</svg>
